# xmcd CD database file
# Copyright (C) 1995-1998 Ti Kan
#
# Track frame offsets:
#	150
#	9555
#	18517
#	29250
#	40380
#	47215
#	57690
#	70415
#	79225
#	88205
#	98877
#	107210
#	112417
#	119902
#
# Disc length: 1740 seconds
#
# Revision: 1
# Processed by: cddbd v1.4PL0 Copyright (c) Steve Scherf et al.
# Submitted via: CDex 1.40Beta3
#
DISCID=d406ca0e
DTITLE=Jim Reeves - Kimberley Jim
DYEAR=1900
DGENRE=Country
TTITLE0=Kimberley Jim
TTITLE1=Strike it Rich
TTITLE2=I grew up
TTITLE3=My life is a gypsy
TTITLE4=Born to be lucky
TTITLE5=Old fashioned rag
TTITLE6=Could I be falling in love
TTITLE7=Diamonds in the Sand
TTITLE8=A stranger's just a friend
TTITLE9=Fall in and follow
TTITLE10=Roving Gambler
TTITLE11=Dolly with the dimpled knees
TTITLE12=The boom-chic polka
TTITLE13=The search is ended
EXTD=ID3G:   2
EXTT0=
EXTT1=
EXTT2=
EXTT3=
EXTT4=
EXTT5=
EXTT6=
EXTT7=
EXTT8=
EXTT9=
EXTT10=
EXTT11=
EXTT12=
EXTT13=
PLAYORDER=
